<?xml version="1.0" encoding="UTF-8"?><svg id="Layer_1" xmlns="http://www.w3.org/2000/svg" viewBox="0 0 218.88 41.86"><defs><style>.cls-1{fill:#ffcf21;}</style></defs><path class="cls-1" d="M17.9,31.87L0,19.73v-2.98L17.9,4.61v3.79L3.46,18.14v.19l14.45,9.74v3.79Z"/><path class="cls-1" d="M37.44,34.75c-2.05,0-3.94-.48-5.69-1.44-1.74-.96-3.15-2.35-4.22-4.18-1.07-1.82-1.61-4.02-1.61-6.58s.54-4.85,1.61-6.67c1.07-1.82,2.48-3.22,4.22-4.18,1.74-.96,3.64-1.44,5.69-1.44s3.94,.48,5.69,1.44c1.74,.96,3.15,2.35,4.22,4.18,1.07,1.82,1.61,4.05,1.61,6.67s-.54,4.75-1.61,6.58c-1.07,1.82-2.48,3.22-4.22,4.18-1.74,.96-3.64,1.44-5.69,1.44Zm0-3.26c2.24,0,4.04-.82,5.4-2.47,1.36-1.65,2.04-3.8,2.04-6.46s-.68-4.86-2.04-6.53c-1.36-1.66-3.16-2.5-5.4-2.5s-4.04,.83-5.4,2.5c-1.36,1.66-2.04,3.84-2.04,6.53s.68,4.81,2.04,6.46c1.36,1.65,3.16,2.47,5.4,2.47Z"/><path class="cls-1" d="M66.72,34.75c-2.27,0-4.4-.36-6.38-1.08-1.98-.72-3.68-1.58-5.09-2.57l1.82-2.59c1.34,.96,2.83,1.73,4.46,2.3,1.63,.58,3.52,.86,5.66,.86,1.98,0,3.46-.36,4.44-1.08s1.46-1.58,1.46-2.57c0-.61-.17-1.15-.5-1.63-.34-.48-1.02-.94-2.06-1.39-1.04-.45-2.62-.88-4.73-1.3-3.01-.64-5.28-1.5-6.82-2.57-1.54-1.07-2.3-2.49-2.3-4.25,0-1.89,.82-3.46,2.45-4.73,1.63-1.26,4.05-1.9,7.25-1.9,1.79,0,3.52,.3,5.18,.89,1.66,.59,3.07,1.29,4.22,2.09l-1.92,2.54c-1.09-.74-2.29-1.33-3.6-1.78-1.31-.45-2.72-.67-4.22-.67-1.98,0-3.38,.34-4.18,1.01-.8,.67-1.2,1.46-1.2,2.35,0,.99,.54,1.76,1.61,2.3,1.07,.54,2.79,1.07,5.16,1.58,2.59,.54,4.58,1.15,5.98,1.82,1.39,.67,2.35,1.44,2.88,2.3,.53,.86,.79,1.89,.79,3.07,0,1.25-.4,2.4-1.2,3.46-.8,1.06-1.97,1.9-3.5,2.54-1.54,.64-3.42,.96-5.66,.96Z"/><path class="cls-1" d="M85.73,34.18V0h3.94V23.14h.19l12.58-12.29h4.51l-9.31,9.17,10.56,14.16h-4.42l-8.59-11.76-5.52,5.42v6.34h-3.94Z"/><path class="cls-1" d="M121.25,34.75c-1.44,0-2.76-.26-3.96-.79-1.2-.53-2.16-1.29-2.88-2.28-.72-.99-1.08-2.18-1.08-3.55,0-1.76,.57-3.22,1.7-4.39,1.14-1.17,2.95-2.1,5.45-2.81,2.5-.7,5.74-1.22,9.74-1.54-.03-1.06-.25-2.02-.65-2.9-.4-.88-1.05-1.59-1.94-2.14-.9-.54-2.1-.82-3.6-.82s-2.97,.3-4.39,.89c-1.42,.59-2.68,1.22-3.77,1.9l-1.54-2.69c1.18-.77,2.7-1.52,4.54-2.26,1.84-.74,3.78-1.1,5.83-1.1,3.2,0,5.58,.87,7.13,2.62,1.55,1.74,2.33,4.07,2.33,6.98v14.3h-3.22l-.34-3.17h-.14c-1.28,.99-2.72,1.86-4.32,2.62-1.6,.75-3.23,1.13-4.9,1.13Zm1.06-3.17c1.31,0,2.63-.3,3.96-.91,1.33-.61,2.65-1.46,3.96-2.54v-6.14c-3.33,.26-5.94,.65-7.85,1.18-1.9,.53-3.25,1.18-4.03,1.97-.78,.78-1.18,1.69-1.18,2.71,0,1.31,.52,2.26,1.56,2.86,1.04,.59,2.23,.89,3.58,.89Z"/><path class="cls-1" d="M145.25,34.18V10.85h3.26l.34,5.52h.14c1.22-1.89,2.72-3.38,4.51-4.46,1.79-1.09,3.76-1.63,5.9-1.63,.86,0,1.67,.07,2.42,.22s1.48,.39,2.18,.74l-.91,3.41c-.8-.29-1.49-.5-2.06-.62-.58-.13-1.33-.19-2.26-.19-1.76,0-3.45,.5-5.06,1.51-1.62,1.01-3.13,2.73-4.54,5.16v13.68h-3.94Z"/><path class="cls-1" d="M171.79,41.86L187.53,.1h3.55l-15.74,41.76h-3.55Z"/><path class="cls-1" d="M200.98,31.87v-3.79l14.45-9.74v-.19l-14.45-9.74v-3.79l17.9,12.14v2.98l-17.9,12.14Z"/></svg>